<?xml version="1.0" encoding="UTF-8" standalone="no"?>
<!-- Generator: Adobe Illustrator 27.3.1, SVG Export Plug-In . SVG Version: 6.00 Build 0)  -->

<svg
   version="1.1"
   id="Layer_1"
   x="0px"
   y="0px"
   viewBox="0 0 1783.5999 795.71194"
   xml:space="preserve"
   sodipodi:docname="Fishfy2.svg"
   width="1783.6"
   height="795.71198"
   inkscape:export-filename="/Users/falco/Desktop/Fishfy.svg"
   inkscape:export-xdpi="96"
   inkscape:export-ydpi="96"
   inkscape:version="1.4.3 (0d15f75, 2025-12-25)"
   xmlns:inkscape="http://www.inkscape.org/namespaces/inkscape"
   xmlns:sodipodi="http://sodipodi.sourceforge.net/DTD/sodipodi-0.dtd"
   xmlns="http://www.w3.org/2000/svg"
   xmlns:svg="http://www.w3.org/2000/svg"><defs
   id="defs6" /><sodipodi:namedview
   id="namedview6"
   pagecolor="#ffffff"
   bordercolor="#000000"
   borderopacity="0.25"
   inkscape:showpageshadow="2"
   inkscape:pageopacity="0.0"
   inkscape:pagecheckerboard="0"
   inkscape:deskcolor="#d1d1d1"
   showgrid="false"
   inkscape:zoom="0.23358012"
   inkscape:cx="314.66718"
   inkscape:cy="1057.453"
   inkscape:window-width="1512"
   inkscape:window-height="949"
   inkscape:window-x="0"
   inkscape:window-y="33"
   inkscape:window-maximized="0"
   inkscape:current-layer="g6"><inkscape:page
     x="0"
     y="0"
     width="1783.5999"
     height="795.71191"
     id="page2"
     margin="0"
     bleed="0" /></sodipodi:namedview>
<style
   type="text/css"
   id="style1">
	.st0{fill:#011C38;}
	.st1{fill:url(#SVGID_1_);}
	.st2{fill:#16A4A9;}
</style>
<g
   id="g6"
   transform="translate(-128.6,-163)">
	<polygon
   class="st0"
   points="215.1,441.4 421.5,441.4 421.5,370.1 215.1,370.1 215.1,267.1 437,267.1 437,193.8 130.2,193.8 130.2,624.1 215.1,624.1 "
   id="polygon1"
   style="fill:#1c1c1e;fill-opacity:1" />
	<path
   class="st0"
   d="m 542.5,257.4 c 14.2,0 26.2,-4.5 35.5,-13.4 4.6,-4.4 8.1,-9.5 10.5,-15.2 2.3,-5.7 3.5,-12 3.5,-18.9 0,-13.7 -4.7,-25.1 -14,-33.8 -9.3,-8.7 -21.3,-13.1 -35.5,-13.1 -14.3,0 -26.2,4.4 -35.5,13.1 -9.4,8.8 -14,19.8 -14,33.8 0,13.8 4.7,25.3 14,34.1 9.3,8.9 21.3,13.4 35.5,13.4 z"
   id="path1"
   style="fill:#1c1c1e;fill-opacity:1" />
	<rect
   x="502.70001"
   y="287.70001"
   class="st0"
   width="80.300003"
   height="336.29999"
   id="rect1"
   style="fill:#1c1c1e;fill-opacity:1" />
	<path
   class="st0"
   d="m 732.9,480.7 52.1,12.9 c 8,2.2 14.1,4.3 18.7,6.2 4.9,2.1 9.4,5.6 13.5,10.3 4.3,5 6.4,11 6.4,18.1 0,12.6 -5.8,21.8 -17.2,27.4 -10.8,5.3 -23.9,8 -38.8,8 -44.6,0 -84.7,-11.3 -119.1,-33.4 h -1.1 v 73.1 c 34.3,19.7 74.8,29.7 120.2,29.7 40,0 72.8,-9.1 97.5,-27.1 24.5,-17.8 36.9,-45 36.9,-80.9 0,-24 -8.4,-44.4 -24.9,-60.5 -16.7,-16.3 -38.9,-28 -65.7,-34.7 l -51.5,-13.5 c -12.2,-3.1 -21.7,-6.9 -28.2,-11.3 -6.9,-4.8 -10.4,-12.2 -10.4,-22.1 0,-12.2 5.4,-21.2 16.2,-26.8 10.2,-5.3 22.7,-8 37.2,-8 42.5,0 79.8,11.3 110.8,33.5 h 1.7 v -73.1 c -30.9,-19.7 -68.8,-29.7 -112.5,-29.7 -38.3,0 -70.2,9.3 -94.9,27.8 -24.5,18.3 -36.9,44.8 -36.9,78.9 0,24.5 8.2,44.8 24.3,60.5 16.3,15.9 38.4,27.6 65.7,34.7 z"
   id="path2"
   style="fill:#1c1c1e;fill-opacity:1" />
	<path
   class="st0"
   d="m 1037.7,425.3 c 0,-22.5 6.8,-40.8 20.4,-54.6 13.6,-13.8 31.8,-20.7 54.3,-20.7 22.6,0 40,6.8 51.8,20.2 11.8,13.3 17.7,31.8 17.7,55.1 V 624 h 80.3 V 396.4 c 0,-34.7 -11.1,-63.3 -33,-85 -21.9,-21.7 -50.6,-32.7 -85.3,-32.7 -46,0 -80.1,17.5 -101.3,52.2 l -4.8,7.9 V 178.4 h -80.3 v 445.7 h 80.3 V 425.3 Z"
   id="path3"
   style="fill:#1c1c1e;fill-opacity:1" />
	<path
   class="st0"
   d="m 1353,624.1 h 80.3 V 353.9 h 90.2 v -66.2 h -90.2 v -11.6 c 0,-16.1 3.8,-27.9 11.4,-35 7.6,-7.1 19.7,-10.7 36.2,-10.7 19.3,0 35.9,2.6 49.4,7.7 h 2.1 v -60.5 c -19.4,-7.2 -42.1,-10.8 -67.5,-10.8 -34.8,0 -62.4,9.1 -82.2,27 -19.7,17.8 -29.7,43.8 -29.7,77.2 v 16.8 h -49.5 V 354 h 49.5 z"
   id="path4"
   style="fill:#1c1c1e;fill-opacity:1" />
	<linearGradient
   id="SVGID_1_"
   gradientUnits="userSpaceOnUse"
   x1="1563.3754"
   y1="618.49957"
   x2="1375.3518"
   y2="633.16809">
		<stop
   offset="0"
   style="stop-color:#1c1c1e;stop-opacity:1;"
   id="stop4" />
		<stop
   offset="1"
   style="stop-color:#1CA1A9"
   id="stop5" />
	</linearGradient>
	<path
   class="st1"
   d="m 1822,287.7 -93.7,202.4 -91.7,-202.4 h -90.9 v 1.3 c 0,0 138.6,283 138.6,283 -15.8,53.2 -39.3,103.7 -66,152.3 -24.9,45.2 -50.7,95.9 -87.4,132.7 -21.9,22 -50.4,38.8 -81.4,40.4 -28.5,1.5 -57.1,-11.1 -76,-32.3 -21.5,-24.1 -21.8,-56 -11.4,-85.3 l 23.8,18.9 0.2,-5 c 0,0 4.9,-115.3 5.3,-125.9 l 0.2,-3.4 0.2,-5.6 -4.6,6.2 c -0.1,0.1 -0.2,0.3 -0.3,0.4 -3.5,4.6 -6.9,9.3 -10.4,14 -15,20.2 -30.6,41.2 -46.4,61.2 -25.2,31.9 -35.9,76.8 -25.4,116.4 10,37.6 46.3,70.8 80.3,86.8 36.9,17.3 80.6,19.7 119.2,6.4 39.2,-13.5 71.6,-41.9 98.7,-73.3 60.5,-70.2 101.2,-156.2 139.9,-239.6 4.4,-9.5 8.5,-19.1 12.9,-28.5 0.2,-0.3 0.2,-0.5 0.2,-0.5 L 1912.2,289 v -1.3 z"
   id="path5"
   style="fill:url(#SVGID_1_)" />
	
</g>
</svg>
