<?xml version="1.0" encoding="utf-8"?>
<!-- Generator: Adobe Illustrator 27.3.1, SVG Export Plug-In . SVG Version: 6.00 Build 0)  -->
<svg version="1.1" id="Layer_1" xmlns="http://www.w3.org/2000/svg" xmlns:xlink="http://www.w3.org/1999/xlink" x="0px" y="0px"
	 viewBox="0 0 2040.9 1121.8" style="enable-background:new 0 0 2040.9 1121.8;" xml:space="preserve">
<style type="text/css">
	.st0{fill:#011C38;}
	.st1{fill:url(#SVGID_1_);}
	.st2{fill:#16A4A9;}
</style>
<g>
	<polygon class="st0" points="215.1,441.4 421.5,441.4 421.5,370.1 215.1,370.1 215.1,267.1 437,267.1 437,193.8 130.2,193.8 
		130.2,624.1 215.1,624.1 	"/>
	<path class="st0" d="M542.5,257.4c14.2,0,26.2-4.5,35.5-13.4c4.6-4.4,8.1-9.5,10.5-15.2c2.3-5.7,3.5-12,3.5-18.9
		c0-13.7-4.7-25.1-14-33.8c-9.3-8.7-21.3-13.1-35.5-13.1c-14.3,0-26.2,4.4-35.5,13.1c-9.4,8.8-14,19.8-14,33.8
		c0,13.8,4.7,25.3,14,34.1C516.3,252.9,528.3,257.4,542.5,257.4z"/>
	<rect x="502.7" y="287.7" class="st0" width="80.3" height="336.3"/>
	<path class="st0" d="M732.9,480.7l52.1,12.9c8,2.2,14.1,4.3,18.7,6.2c4.9,2.1,9.4,5.6,13.5,10.3c4.3,5,6.4,11,6.4,18.1
		c0,12.6-5.8,21.8-17.2,27.4c-10.8,5.3-23.9,8-38.8,8c-44.6,0-84.7-11.3-119.1-33.4h-1.1v73.1C681.7,623,722.2,633,767.6,633
		c40,0,72.8-9.1,97.5-27.1c24.5-17.8,36.9-45,36.9-80.9c0-24-8.4-44.4-24.9-60.5c-16.7-16.3-38.9-28-65.7-34.7l-51.5-13.5
		c-12.2-3.1-21.7-6.9-28.2-11.3c-6.9-4.8-10.4-12.2-10.4-22.1c0-12.2,5.4-21.2,16.2-26.8c10.2-5.3,22.7-8,37.2-8
		c42.5,0,79.8,11.3,110.8,33.5h1.7v-73.1c-30.9-19.7-68.8-29.7-112.5-29.7c-38.3,0-70.2,9.3-94.9,27.8
		c-24.5,18.3-36.9,44.8-36.9,78.9c0,24.5,8.2,44.8,24.3,60.5C683.5,461.9,705.6,473.6,732.9,480.7z"/>
	<path class="st0" d="M1037.7,425.3c0-22.5,6.8-40.8,20.4-54.6s31.8-20.7,54.3-20.7c22.6,0,40,6.8,51.8,20.2
		c11.8,13.3,17.7,31.8,17.7,55.1v198.7h80.3V396.4c0-34.7-11.1-63.3-33-85c-21.9-21.7-50.6-32.7-85.3-32.7
		c-46,0-80.1,17.5-101.3,52.2l-4.8,7.9V178.4h-80.3v445.7h80.3V425.3z"/>
	<path class="st0" d="M1353,624.1h80.3V353.9h90.2v-66.2h-90.2v-11.6c0-16.1,3.8-27.9,11.4-35c7.6-7.1,19.7-10.7,36.2-10.7
		c19.3,0,35.9,2.6,49.4,7.7h2.1v-60.5c-19.4-7.2-42.1-10.8-67.5-10.8c-34.8,0-62.4,9.1-82.2,27c-19.7,17.8-29.7,43.8-29.7,77.2v16.8
		h-49.5v66.2h49.5V624.1z"/>
	<linearGradient id="SVGID_1_" gradientUnits="userSpaceOnUse" x1="1563.3754" y1="618.4996" x2="1375.3518" y2="633.1681">
		<stop  offset="0" style="stop-color:#011C38"/>
		<stop  offset="1" style="stop-color:#1CA1A9"/>
	</linearGradient>
	<path class="st1" d="M1822,287.7l-93.7,202.4l-91.7-202.4h-90.9v1.3c0,0,138.6,283,138.6,283c-15.8,53.2-39.3,103.7-66,152.3
		c-24.9,45.2-50.7,95.9-87.4,132.7c-21.9,22-50.4,38.8-81.4,40.4c-28.5,1.5-57.1-11.1-76-32.3c-21.5-24.1-21.8-56-11.4-85.3
		l23.8,18.9l0.2-5c0,0,4.9-115.3,5.3-125.9l0.2-3.4l0.2-5.6l-4.6,6.2c-0.1,0.1-0.2,0.3-0.3,0.4c-3.5,4.6-6.9,9.3-10.4,14
		c-15,20.2-30.6,41.2-46.4,61.2c-25.2,31.9-35.9,76.8-25.4,116.4c10,37.6,46.3,70.8,80.3,86.8c36.9,17.3,80.6,19.7,119.2,6.4
		c39.2-13.5,71.6-41.9,98.7-73.3c60.5-70.2,101.2-156.2,139.9-239.6c4.4-9.5,8.5-19.1,12.9-28.5c0.2-0.3,0.2-0.5,0.2-0.5L1912.2,289
		v-1.3H1822z"/>
	<path class="st2" d="M1200.4,763.6c-27.7-3.5-54.5-12.3-80.7-21.8c-31.1-11.3-61.8-24-93.8-32.6c-80.7-21.8-163.8-2.2-239.9,27.8
		c-36,14.2-71.8,30.8-110.3,34.7c-108.6,11-198.3-75-305.4-75.7c-60.5-0.3-119.5,13.1-173.4,40.7c-17.6,9-34.7,19.3-50.7,31
		c-5.6,4.1-11.4,10.8-17.6,14c0.9-0.4,1.7-0.8,2.6-1.2c47.6-20.4,106-26,157.1-28.4c37.1-1.8,75-0.8,111.3,7.4
		c35.6,8,69.2,22.6,102.9,36.3c84,34.1,183,46.1,268.1,9c35-15.3,68.2-35,104.5-47.3c51.5-17.5,115-22,166.1-1.7
		c50.8,20.2,106,38.3,161.3,31.7c29.2-3.5,58-14.1,80.1-33.4C1257,765.1,1228.1,767.1,1200.4,763.6z"/>
</g>
</svg>
